<?xml version="1.0" encoding="iso-8859-1"?>
<!-- Generator: Adobe Illustrator 19.0.0, SVG Export Plug-In . SVG Version: 6.00 Build 0)  -->
<svg version="1.1" id="Capa_1" xmlns="http://www.w3.org/2000/svg" xmlns:xlink="http://www.w3.org/1999/xlink" x="0px" y="0px"
	 viewBox="0 0 511.999 511.999" style="enable-background:new 0 0 511.999 511.999;" xml:space="preserve">
<g>
	<path style="fill:#F7DECE;" d="M113.781,270.221c0,31.416-15.914,56.887-35.555,56.887s-35.555-25.472-35.555-56.887
		c0-31.43,15.914-56.902,35.555-56.902S113.781,238.791,113.781,270.221"/>
	<path style="fill:#F7DECE;" d="M469.327,270.221c0,31.416-15.914,56.887-35.555,56.887s-35.555-25.472-35.555-56.887
		c0-31.43,15.914-56.902,35.555-56.902C453.412,213.319,469.327,238.791,469.327,270.221"/>
	<path style="fill:#F7DECE;" d="M71.116,292.442c0-121.256,82.771-219.557,184.884-219.557s184.884,98.301,184.884,219.557
		c0,121.241-82.771,219.557-184.884,219.557S71.116,413.683,71.116,292.442"/>
</g>
<g>
	<path style="fill:#662113;" d="M184.89,284.443c-7.85,0-14.222-6.357-14.222-14.222v-28.444c0-7.85,6.372-14.222,14.222-14.222
		c7.85,0,14.222,6.372,14.222,14.222v28.444C199.112,278.086,192.74,284.443,184.89,284.443"/>
	<path style="fill:#662113;" d="M327.108,284.443c-7.865,0-14.222-6.357-14.222-14.222v-28.444c0-7.85,6.357-14.222,14.222-14.222
		s14.222,6.372,14.222,14.222v28.444C341.33,278.086,334.973,284.443,327.108,284.443"/>
</g>
<path style="fill:#C1694F;" d="M270.221,341.33h-28.444c-7.85,0-14.222-6.357-14.222-14.222s6.372-14.222,14.222-14.222h28.444
	c7.865,0,14.222,6.357,14.222,14.222S278.086,341.33,270.221,341.33"/>
<g>
	<path style="fill:#292F33;" d="M255.999,0C378.52,0,455.105,90.423,455.105,165.77s-15.317,105.498-30.633,75.347
		c-15.303-30.136-30.633-60.272-30.633-60.272s-91.901,0-122.521-30.15c0,0,45.951,90.423-45.951,0c0,0,15.317,60.286-76.585-15.061
		c0,0-45.937,30.136-61.253,105.483c-4.252,20.906-30.633,0-30.633-75.347C56.894,90.422,118.162,0,255.999,0"/>
	<path style="fill:#292F33;" d="M255.999,422.032c-59.262,0-103.705-31.288,0-31.288S315.261,422.032,255.999,422.032
		 M389.329,343.812c-14.819,15.644-44.443,46.932-74.068,31.288c-41.898-22.13-59.262-15.644-59.262-15.644
		s-17.365-6.486-59.262,15.644c-29.624,15.644-59.249-15.644-74.067-31.288c-10.481-11.065-44.443-31.288-44.443,0
		c0,46.932,29.624,78.22,29.624,78.22c29.638,78.22,88.886,78.22,88.886,78.22c14.819,15.644,103.705,15.644,118.524,0
		c0,0,59.249,0,88.886-78.22c0,0,29.624-31.288,29.624-78.22C433.772,312.524,399.796,332.747,389.329,343.812"/>
</g>
<g>
</g>
<g>
</g>
<g>
</g>
<g>
</g>
<g>
</g>
<g>
</g>
<g>
</g>
<g>
</g>
<g>
</g>
<g>
</g>
<g>
</g>
<g>
</g>
<g>
</g>
<g>
</g>
<g>
</g>
</svg>
